<svg viewBox="0 0 24 24" fill="none" xmlns="http://www.w3.org/2000/svg">
<path d="M13.7039 20C13.2346 20 13 19.6696 13 19.0088V4.99115C13 4.33038 13.2346 4 13.7039 4H17.743C19 4 20 4 21 5C22 6 22 7 22 9V16C22 17.5 21.5 18.5 21 19C20.5 19.5 20 20 19 20H13.7039ZM15 18H18C18.5 18 19 18 19.5 17.5C20 17 20 16.5 20 16C20 15.3656 20 15.0069 20 14V10C20 9.00098 20 8.5 20 8C20 7.5 19.8953 6.8953 19.5 6.5C19.1047 6.1047 18.5 6 17.743 5.9823L15 6V18Z" fill="currentColor"/>
<path d="M2.49073 19.8903C2.03272 19.6466 1.89531 19.2144 2.07852 18.5936L6 5C6.17175 4.48133 6.5 4 6.97352 4H7.00787C7.5 4 7.86832 4.5049 8 5L11.9201 18.5936C12.1033 19.2144 11.9716 19.6466 11.525 19.8903C11.0727 20.1339 10.1775 20.1051 10 19.5L9 16H5L4 19.5C3.82252 20.113 2.93156 20.1417 2.49073 19.8903ZM5.5 14H8.5L7 8.5L5.5 14Z" fill="currentColor"/>
</svg>
