<svg viewBox="0 0 24 24" fill="none" xmlns="http://www.w3.org/2000/svg">
  <path
    d="M18.74 14.72C18.0776 14.7198 17.4342 14.9409 16.9119 15.3481L14.7462 13.6606C14.9086 13.2848 14.9916 12.8794 14.99 12.47C14.9916 12.4011 14.9884 12.3322 14.9806 12.2637L16.2275 11.8512C16.6207 12.4527 17.2174 12.8925 17.9084 13.0901C18.5993 13.2877 19.3383 13.2298 19.9901 12.9272C20.6419 12.6245 21.163 12.0972 21.4578 11.4419C21.7527 10.7865 21.8018 10.0469 21.596 9.35837C21.3902 8.66982 20.9434 8.07838 20.3373 7.6923C19.7312 7.30622 19.0063 7.15131 18.2953 7.25592C17.5843 7.36053 16.9348 7.71766 16.4655 8.26196C15.9963 8.80626 15.7387 9.50133 15.74 10.22C15.7384 10.2889 15.7416 10.3578 15.7494 10.4262L14.5025 10.8387C14.2314 10.4188 13.8595 10.0735 13.4205 9.83439C12.9816 9.59529 12.4898 9.47 11.99 9.46997C11.8238 9.47278 11.6579 9.4853 11.4931 9.50747L10.8556 8.06372C11.2102 7.78478 11.4966 7.42878 11.6932 7.0227C11.8897 6.61662 11.9912 6.17112 11.99 5.71997C11.99 5.12663 11.814 4.54661 11.4844 4.05326C11.1548 3.55991 10.6862 3.1754 10.138 2.94833C9.58987 2.72127 8.98667 2.66186 8.40472 2.77762C7.82278 2.89337 7.28823 3.17909 6.86867 3.59865C6.44912 4.01821 6.16339 4.55276 6.04764 5.1347C5.93188 5.71665 5.99129 6.31985 6.21836 6.86802C6.44542 7.4162 6.82994 7.88474 7.32328 8.21438C7.81663 8.54403 8.39665 8.71997 8.98999 8.71997C9.15621 8.71717 9.32212 8.70465 9.48687 8.68247L10.1244 10.1262C9.76979 10.4052 9.48338 10.7612 9.28683 11.1673C9.09029 11.5733 8.98878 12.0188 8.98999 12.47C8.99069 12.9456 9.10309 13.4145 9.31812 13.8387L6.90874 15.9762C6.35289 15.6042 5.68864 15.4285 5.02153 15.4772C4.35442 15.5259 3.72272 15.7962 3.22681 16.2451C2.7309 16.6939 2.39922 17.2956 2.28447 17.9546C2.16972 18.6136 2.27849 19.292 2.59349 19.8821C2.90849 20.4721 3.41165 20.94 4.02303 21.2113C4.6344 21.4827 5.31893 21.5419 5.96783 21.3796C6.61673 21.2174 7.19278 20.8429 7.60447 20.3157C8.01615 19.7885 8.23984 19.1389 8.23999 18.47C8.2393 17.9943 8.1269 17.5255 7.91187 17.1012L10.3212 14.9637C10.8431 15.3132 11.4617 15.4894 12.0894 15.4676C12.717 15.4457 13.3219 15.2268 13.8181 14.8419L15.9837 16.5294C15.8213 16.9052 15.7384 17.3105 15.74 17.72C15.74 18.3133 15.9159 18.8933 16.2456 19.3867C16.5752 19.88 17.0438 20.2646 17.5919 20.4916C18.1401 20.7187 18.7433 20.7781 19.3253 20.6623C19.9072 20.5466 20.4418 20.2609 20.8613 19.8413C21.2809 19.4217 21.5666 18.8872 21.6823 18.3052C21.7981 17.7233 21.7387 17.1201 21.5116 16.5719C21.2846 16.0237 20.9001 15.5552 20.4067 15.2256C19.9134 14.8959 19.3333 14.72 18.74 14.72ZM18.74 8.71997C19.0367 8.71997 19.3267 8.80795 19.5733 8.97277C19.82 9.13759 20.0123 9.37186 20.1258 9.64595C20.2393 9.92004 20.269 10.2216 20.2112 10.5126C20.1533 10.8036 20.0104 11.0709 19.8007 11.2806C19.5909 11.4904 19.3236 11.6333 19.0326 11.6912C18.7417 11.749 18.4401 11.7193 18.166 11.6058C17.8919 11.4923 17.6576 11.3 17.4928 11.0533C17.328 10.8067 17.24 10.5166 17.24 10.22C17.24 9.82215 17.398 9.44062 17.6793 9.15931C17.9606 8.87801 18.3422 8.71997 18.74 8.71997ZM7.48999 5.71997C7.48999 5.4233 7.57797 5.13329 7.74279 4.88662C7.90761 4.63994 8.14188 4.44768 8.41597 4.33415C8.69006 4.22062 8.99166 4.19092 9.28263 4.24879C9.5736 4.30667 9.84088 4.44953 10.0507 4.65931C10.2604 4.86909 10.4033 5.13637 10.4612 5.42734C10.519 5.71831 10.4893 6.01991 10.3758 6.294C10.2623 6.56809 10.07 6.80236 9.82335 6.96718C9.57668 7.132 9.28667 7.21997 8.98999 7.21997C8.59217 7.21997 8.21064 7.06194 7.92933 6.78063C7.64803 6.49933 7.48999 6.1178 7.48999 5.71997ZM5.23999 19.97C4.94332 19.97 4.65331 19.882 4.40664 19.7172C4.15997 19.5524 3.96771 19.3181 3.85417 19.044C3.74064 18.7699 3.71094 18.4683 3.76882 18.1773C3.82669 17.8864 3.96956 17.6191 4.17933 17.4093C4.38911 17.1995 4.65639 17.0567 4.94736 16.9988C5.23833 16.9409 5.53993 16.9706 5.81402 17.0842C6.08811 17.1977 6.32238 17.3899 6.4872 17.6366C6.65202 17.8833 6.73999 18.1733 6.73999 18.47C6.73999 18.8678 6.58196 19.2493 6.30065 19.5306C6.01935 19.8119 5.63782 19.97 5.23999 19.97ZM18.74 19.22C18.4433 19.22 18.1533 19.132 17.9066 18.9672C17.66 18.8024 17.4677 18.5681 17.3542 18.294C17.2406 18.0199 17.2109 17.7183 17.2688 17.4273C17.3267 17.1364 17.4696 16.8691 17.6793 16.6593C17.8891 16.4495 18.1564 16.3067 18.4474 16.2488C18.7383 16.1909 19.0399 16.2206 19.314 16.3342C19.5881 16.4477 19.8224 16.6399 19.9872 16.8866C20.152 17.1333 20.24 17.4233 20.24 17.72C20.24 18.1178 20.082 18.4993 19.8007 18.7806C19.5193 19.0619 19.1378 19.22 18.74 19.22Z"
    fill="currentColor" />
</svg>
