<svg viewBox="0 0 24 24" fill="none" xmlns="http://www.w3.org/2000/svg">
<path fill-rule="evenodd" clip-rule="evenodd" d="M17.5703 5.99956C17.5703 5.99971 17.5703 5.99985 17.5703 6L17.5703 14C17.5703 14.0002 17.5703 14.0005 17.5703 14.0007L17.5703 16.5858L19.8632 14.2929C20.2537 13.9024 20.8869 13.9024 21.2774 14.2929C21.6679 14.6834 21.6679 15.3166 21.2774 15.7071L17.2774 19.7071C17.0823 19.9022 16.8267 19.9998 16.571 20L16.5696 20C16.3139 19.9998 16.0583 19.9022 15.8632 19.7071L11.8632 15.7071C11.4727 15.3166 11.4727 14.6834 11.8632 14.2929C12.2537 13.9024 12.8869 13.9024 13.2774 14.2929L15.5703 16.5858L15.5703 14L15.5703 6L15.5703 4C15.5703 3.44772 16.018 3 16.5703 3C17.1226 3 17.5703 3.44772 17.5703 4L17.5703 5.99956Z" fill="currentColor"/>
<path d="M4.45818 10.243H3L5.65492 3.24298H7.3414L10 10.243H8.54182L6.52762 4.67853H6.4687L4.45818 10.243ZM4.50605 7.49835H8.4829V8.51691H4.50605V7.49835Z" fill="currentColor"/>
<path d="M3.52365 19.757V18.9095L7.66294 13.384H3.5V12.243H9.47635V13.0905L5.341 18.616H9.5V19.757H3.52365Z" fill="currentColor"/>
</svg>
