<svg viewBox="0 0 24 24" fill="none" xmlns="http://www.w3.org/2000/svg">
<path fill-rule="evenodd" clip-rule="evenodd" d="M17.5703 17.0004C17.5703 17.0006 17.5703 17.0003 17.5703 17.0004V9C17.5703 9.0002 17.5703 8.9998 17.5703 9V6.4142L19.8632 8.7071C20.2537 9.0976 20.8869 9.0976 21.2774 8.7071C21.6679 8.3166 21.6679 7.6834 21.2774 7.2929L17.2774 3.2929C17.0823 3.0978 16.8267 3.0002 16.571 3H16.5696C16.3139 3.0002 16.0583 3.0978 15.8632 3.2929L11.8632 7.2929C11.4727 7.6834 11.4727 8.3166 11.8632 8.7071C12.2537 9.0976 12.8869 9.0976 13.2774 8.7071L15.5703 6.4142V9V17V19C15.5703 19.5523 16.018 20 16.5703 20C17.1226 20 17.5703 19.5523 17.5703 19V17.0004Z" fill="currentColor"/>
<path d="M4.45818 10.243H3L5.65492 3.24298H7.3414L10 10.243H8.54182L6.52762 4.67853H6.4687L4.45818 10.243ZM4.50605 7.49835H8.4829V8.51691H4.50605V7.49835Z" fill="currentColor"/>
<path d="M3.52365 19.757V18.9095L7.66294 13.384H3.5V12.243H9.47635V13.0905L5.341 18.616H9.5V19.757H3.52365Z" fill="currentColor"/>
</svg>
