<svg xmlns="http://www.w3.org/2000/svg" fill="none" viewBox="0 0 16 16">
  <path fill="currentColor"
    d="M8.13815 1.52925C8.3985 1.7896 8.3985 2.21171 8.13815 2.47206L7.27622 3.33398H8.33341C11.4349 3.33398 14.0001 5.89913 14.0001 9.00065C14.0001 12.1022 11.4349 14.6673 8.33341 14.6673C5.23189 14.6673 2.66675 12.1022 2.66675 9.00065C2.66675 8.63246 2.96522 8.33398 3.33341 8.33398C3.7016 8.33398 4.00008 8.63246 4.00008 9.00065C4.00008 11.3658 5.96827 13.334 8.33341 13.334C10.6986 13.334 12.6667 11.3658 12.6667 9.00065C12.6667 6.63551 10.6986 4.66732 8.33341 4.66732H7.27622L8.13815 5.52925C8.3985 5.7896 8.3985 6.21171 8.13815 6.47206C7.8778 6.73241 7.45569 6.73241 7.19534 6.47206L5.19534 4.47206C4.93499 4.21171 4.93499 3.7896 5.19534 3.52925L7.19534 1.52925C7.45569 1.2689 7.8778 1.2689 8.13815 1.52925Z" />
  <path fill="currentColor"
    d="M8.33341 10.6673C9.26175 10.6673 10.0001 9.92787 10.0001 9.00065C10.0001 8.07343 9.26175 7.33398 8.33341 7.33398C7.40508 7.33398 6.66675 8.07343 6.66675 9.00065C6.66675 9.92787 7.40508 10.6673 8.33341 10.6673Z" />
</svg>
