<svg viewBox="0 0 21 20" fill="none" xmlns="http://www.w3.org/2000/svg">
<path d="M6.86668 2.49999C6.86668 2.03975 7.23977 1.66666 7.70001 1.66666H12.7C13.1602 1.66666 13.5333 2.03975 13.5333 2.49999H15.2C16.1205 2.49999 16.8667 3.24618 16.8667 4.16666V16.6667C16.8667 17.5871 16.1205 18.3333 15.2 18.3333H5.20001C4.27954 18.3333 3.53335 17.5871 3.53335 16.6667V4.16666C3.53335 3.24618 4.27954 2.49999 5.20001 2.49999H6.86668ZM6.86668 4.16666H5.20001V16.6667H15.2V4.16666H13.5333V4.99999C13.5333 5.46023 13.1602 5.83332 12.7 5.83332H7.70001C7.23977 5.83332 6.86668 5.46023 6.86668 4.99999V4.16666ZM11.8667 3.33332H8.53335V4.16666H11.8667V3.33332ZM13.2893 8.99407C13.6147 9.3195 13.6147 9.84714 13.2893 10.1726L9.95593 13.5059C9.6305 13.8314 9.10286 13.8314 8.77742 13.5059L7.11076 11.8392C6.78532 11.5138 6.78532 10.9862 7.11076 10.6607C7.43619 10.3353 7.96383 10.3353 8.28927 10.6607L9.36668 11.7381L12.1108 8.99407C12.4362 8.66863 12.9638 8.66863 13.2893 8.99407Z" fill="currentColor"/>
</svg>
