<svg viewBox="0 0 24 24" fill="none" xmlns="http://www.w3.org/2000/svg">
  <path fill-rule="evenodd" clip-rule="evenodd"
    d="M8.45643 17.4622L6.09244 19.8292C5.875 20.0469 5.52262 20.0469 5.30518 19.8292C3.93895 18.4612 3.04924 16.7476 2.70478 14.8859C2.63699 14.5195 2.59031 14.1473 2.56529 13.771C2.56382 13.749 2.56244 13.727 2.56112 13.705C2.56074 13.6986 2.56037 13.6923 2.56 13.6859H7.04131C7.04191 13.6912 7.04251 13.6966 7.04312 13.7019C7.04575 13.725 7.04853 13.748 7.05146 13.771C7.19071 14.8643 7.66342 15.8804 8.45643 16.6739C8.67462 16.8924 8.673 17.2454 8.45643 17.4622ZM10.4904 16.8672C10.9057 17.2831 11.4516 17.4911 11.9975 17.4911C12.5434 17.4911 13.0892 17.2831 13.5046 16.8672C13.533 16.8387 13.5579 16.8078 13.579 16.775C13.6841 16.6118 13.6982 16.4023 13.609 16.2237L13.2888 15.5826C13.2442 15.6063 13.199 15.6289 13.1531 15.6504C12.8005 15.8158 12.4121 15.9157 11.9975 15.9157C11.5831 15.9157 11.1947 15.8159 10.8421 15.6505C10.7962 15.629 10.7509 15.6063 10.7062 15.5826L10.386 16.2237C10.2968 16.4023 10.3109 16.6118 10.416 16.775C10.4371 16.8078 10.462 16.8387 10.4904 16.8672ZM10.7642 14.2552C10.8947 14.3982 11.0495 14.5185 11.2221 14.6094C11.4539 14.7316 11.7178 14.8008 11.9975 14.8008C12.2772 14.8008 12.5411 14.7316 12.773 14.6094C12.9455 14.5185 13.1003 14.3982 13.2307 14.2553C13.502 13.9578 13.6677 13.5621 13.6677 13.1284C13.6677 12.4354 13.2422 11.8453 12.6407 11.5924C12.6123 11.5804 12.5835 11.5692 12.5542 11.5588V8.66887C12.5542 8.60061 12.542 8.53524 12.5197 8.47482C12.4698 8.34022 12.3696 8.23023 12.2418 8.16774C12.1681 8.13167 12.0852 8.11143 11.9975 8.11143C11.9098 8.11143 11.8269 8.13167 11.7532 8.16774C11.6254 8.23023 11.5252 8.34022 11.4753 8.47482C11.453 8.53524 11.4407 8.60061 11.4407 8.66887V11.5588C11.4115 11.5692 11.3827 11.5804 11.3542 11.5924C10.7529 11.8453 10.3272 12.4355 10.3272 13.1284C10.3272 13.5621 10.4929 13.9577 10.7642 14.2552ZM11.9975 12.6342L11.8443 12.6889C11.6515 12.7577 11.5272 12.9346 11.5272 13.1284C11.5272 13.3893 11.7406 13.6008 11.9975 13.6008C12.2544 13.6008 12.4677 13.3893 12.4677 13.1284C12.4677 12.9345 12.3435 12.7578 12.1508 12.6889L11.9975 12.6342ZM10.2542 8.44998C10.6036 8.3199 10.9717 8.22794 11.3542 8.17823C11.383 8.17449 11.4118 8.171 11.4407 8.16774V3.68005C11.4119 3.68175 11.383 3.68357 11.3542 3.68552C10.9765 3.71113 10.6049 3.7589 10.2407 3.82757C8.93735 4.07332 7.72858 4.58678 6.67236 5.31011C6.36301 5.52196 6.06675 5.75182 5.78503 5.99822C5.76968 6.01164 5.75438 6.02512 5.73912 6.03864C5.7329 6.04414 5.7267 6.04966 5.7205 6.05518L8.88731 9.22599C8.89073 9.22325 8.89416 9.22051 8.89759 9.21778C8.91672 9.20254 8.93595 9.18744 8.9553 9.17249C9.34757 8.86927 9.78397 8.62508 10.2542 8.44998ZM9.0448 7.68555C9.42187 7.48038 9.82206 7.31391 10.2407 7.19037V5.05193C9.26416 5.26423 8.35214 5.64969 7.53712 6.17597L9.0448 7.68555ZM8.04663 10.0824C8.06424 10.0595 8.08205 10.0368 8.10006 10.0143L4.93325 6.84349C4.91419 6.86494 4.89523 6.88648 4.87636 6.9081C4.63027 7.19018 4.40071 7.48682 4.18912 7.79656C3.46642 8.85452 2.95349 10.0654 2.70816 11.371C2.63964 11.7356 2.59199 12.1077 2.56648 12.4859C2.56457 12.5142 2.56278 12.5426 2.56112 12.571H7.04312C7.04632 12.5425 7.04975 12.5142 7.05341 12.4859C7.16969 11.5866 7.51847 10.7673 8.04663 10.0824ZM6.06521 11.371C6.18879 10.951 6.35545 10.5496 6.56095 10.1714L5.05434 8.66287C4.52896 9.47919 4.14416 10.3927 3.93234 11.371H6.06521ZM12.5542 8.16774C12.5832 8.171 12.612 8.17449 12.6407 8.17823C13.0233 8.22794 13.3914 8.3199 13.7408 8.44998C14.211 8.62509 14.6475 8.86928 15.0397 9.17252C15.0592 9.18754 15.0785 9.20271 15.0977 9.21802C15.101 9.22067 15.1044 9.22333 15.1077 9.22599L18.2745 6.05518C18.2685 6.04982 18.2625 6.04447 18.2564 6.03913C18.241 6.02546 18.2255 6.01183 18.21 5.99825C17.9283 5.75183 17.632 5.52197 17.3226 5.31011C16.2664 4.58678 15.0576 4.07332 13.7542 3.82757C13.39 3.7589 13.0185 3.71113 12.6407 3.68552C12.6119 3.68357 12.5831 3.68175 12.5542 3.68005V8.16774ZM13.7542 5.05193V7.19037C14.1729 7.31391 14.5731 7.48038 14.9502 7.68555L16.4579 6.17597C15.6429 5.64969 14.7308 5.26423 13.7542 5.05193ZM19.0618 6.84349C19.0809 6.86493 19.0998 6.88646 19.1187 6.90807C19.3648 7.19016 19.5943 7.4868 19.8059 7.79655C20.5286 8.85452 21.0416 10.0654 21.2869 11.371C21.3554 11.7357 21.4031 12.1077 21.4286 12.4859C21.4305 12.5142 21.4323 12.5426 21.4339 12.571H16.9519C16.9487 12.5425 16.9453 12.5142 16.9416 12.4859C16.8253 11.5866 16.4765 10.7673 15.9484 10.0823C15.9308 10.0595 15.913 10.0368 15.895 10.0143L19.0618 6.84349ZM17.4341 10.1714L18.9407 8.66287C19.4661 9.47919 19.8509 10.3927 20.0627 11.371H17.9298C17.8062 10.951 17.6396 10.5496 17.4341 10.1714ZM21.435 13.6859C21.4347 13.692 21.4343 13.698 21.4339 13.704C21.4326 13.7263 21.4312 13.7487 21.4297 13.771C21.4047 14.1474 21.358 14.5195 21.2902 14.8859C20.9458 16.7476 20.056 18.4613 18.6898 19.8292C18.4723 20.047 18.12 20.047 17.9026 19.8292L15.5386 17.4622C15.3211 17.2445 15.3211 16.8917 15.5386 16.674C16.3316 15.8799 16.8042 14.8639 16.9435 13.771C16.9464 13.7476 16.9493 13.7243 16.9519 13.7009C16.9525 13.6959 16.9531 13.6909 16.9536 13.6859L21.435 13.6859ZM17.9357 14.8859L20.0668 14.8859C19.7828 16.2208 19.1755 17.4594 18.2787 18.5077L16.817 17.0442C17.3385 16.3983 17.7118 15.6645 17.9357 14.8859ZM6.05921 14.8859C6.28307 15.6646 6.65633 16.3984 7.17788 17.0442L5.71632 18.5076C4.81948 17.4593 4.21222 16.2207 3.92816 14.8859H6.05921Z"
    fill="currentColor" />
</svg>
