<svg viewBox="0 0 24 24" fill="none" xmlns="http://www.w3.org/2000/svg">
<path d="M7 8C7 5.79085 8.79082 4 11 4C12.6439 4 14.0584 4.99174 14.6734 6.4135C14.8434 6.8066 15.2449 7.04776 15.6718 7.01322C15.78 7.00447 15.8893 7 16 7C18.1283 7 19.8683 8.66214 19.9929 10.7591C20.046 11.2109 20.1697 11.5139 20.3497 11.7489C20.915 12.4869 22 11.9297 22 11C22 7.75289 19.4207 5.10823 16.199 5.00324C15.1629 3.20934 13.2236 2 11 2C7.88746 2 5.32856 4.36995 5.02926 7.40373C3.2482 8.16845 2 9.93746 2 12C2 14.7614 4.23861 17 7 17H7.8125V17.0039H8.13183C8.76353 17.0039 9.23584 16.4273 9.23584 15.7956C9.23584 15.3716 8.91014 15 8.48608 15H7C5.34317 15 4 13.6569 4 12C4 10.6031 4.95577 9.42685 6.25047 9.09416C6.70099 8.97839 7.01219 8.56727 7.00131 8.10224C7.00047 8.06627 7 8.03242 7 8Z" fill="currentColor"/>
<path d="M21.708 20.276L19.6772 18.2452C20.2662 17.2196 20.6419 15.9809 20.1951 14.539C19.6569 12.7925 18.1237 11.4421 16.296 11.2695C15.6182 11.1971 14.9329 11.2774 14.2902 11.5044C13.6474 11.7314 13.0637 12.0994 12.5817 12.5814C12.0998 13.0633 11.7318 13.6471 11.5048 14.2898C11.2777 14.9325 11.1975 15.6179 11.2698 16.2956C11.4526 18.1132 12.7929 19.6566 14.5394 20.1947C15.9914 20.6415 17.22 20.2658 18.2455 19.6769L20.2763 21.7077C20.6723 22.1037 21.3019 22.1037 21.6979 21.7077C22.0939 21.3117 22.104 20.672 21.708 20.276ZM15.8188 18.3467C14.3972 18.3467 13.2803 17.2298 13.2803 15.8082C13.2803 14.3867 14.3972 13.2698 15.8188 13.2698C17.2403 13.2698 18.3572 14.3867 18.3572 15.8082C18.3572 17.2298 17.2403 18.3467 15.8188 18.3467Z" fill="currentColor"/>
</svg>
