<svg viewBox="0 0 16 16" fill="none" xmlns="http://www.w3.org/2000/svg">
  <path
    d="M14 5.3335C14 4.22883 11.9106 3.3335 9.33329 3.3335C6.75596 3.3335 4.66663 4.22883 4.66663 5.3335M14 5.3335V8.00016C14 8.68016 13.2093 9.28016 12 9.6415C11.244 9.86816 10.3246 10.0002 9.33329 10.0002C8.34196 10.0002 7.42263 9.8675 6.66663 9.6415C5.45796 9.28016 4.66663 8.68016 4.66663 8.00016V5.3335M14 5.3335C14 6.0135 13.2093 6.6135 12 6.97483C11.244 7.2015 10.3246 7.3335 9.33329 7.3335C8.34196 7.3335 7.42263 7.20083 6.66663 6.97483C5.45796 6.6135 4.66663 6.0135 4.66663 5.3335"
    stroke="currentColor" stroke-width="1.2" stroke-linecap="round" stroke-linejoin="round"/>
  <path
    d="M2 8.0002V10.6669C2 11.3469 2.79133 11.9469 4 12.3082C4.756 12.5349 5.67533 12.6669 6.66667 12.6669C7.658 12.6669 8.57733 12.5342 9.33333 12.3082C10.542 11.9469 11.3333 11.3469 11.3333 10.6669V10.0002M2 8.0002C2 7.2022 3.09 6.51354 4.66667 6.19287M2 8.0002C2 8.6802 2.79133 9.2802 4 9.64154C4.756 9.8682 5.67533 10.0002 6.66667 10.0002C7.13 10.0002 7.57733 9.97154 8 9.91754"
    stroke="currentColor" stroke-width="1.2" stroke-linecap="round" stroke-linejoin="round"/>
</svg>
