<svg viewBox="0 0 21 20" fill="none" xmlns="http://www.w3.org/2000/svg">
<path d="M2.06671 4.16667C2.06671 3.24619 2.8129 2.5 3.73338 2.5H17.0667C17.9872 2.5 18.7334 3.24619 18.7334 4.16667V13.3333C18.7334 14.2538 17.9872 15 17.0667 15H11.2334V16.6667H13.7334C14.1936 16.6667 14.5667 17.0398 14.5667 17.5C14.5667 17.9602 14.1936 18.3333 13.7334 18.3333H7.06671C6.60647 18.3333 6.23338 17.9602 6.23338 17.5C6.23338 17.0398 6.60647 16.6667 7.06671 16.6667H9.56671V15H3.73338C2.8129 15 2.06671 14.2538 2.06671 13.3333V4.16667ZM17.0667 13.3333V4.16667H3.73338V13.3333H17.0667Z" fill="currentColor"/>
</svg>
