<svg viewBox="0 0 20 20" fill="none" xmlns="http://www.w3.org/2000/svg">
<path fill-rule="evenodd" clip-rule="evenodd" d="M18.0891 1.91009C18.4145 2.23553 18.4145 2.76317 18.0891 3.0886L16.5634 4.61434C16.6805 4.7999 16.7815 4.99576 16.8651 5.19983C17.0552 5.66399 17.1509 6.16133 17.1469 6.66287C17.1428 7.16442 17.039 7.66014 16.8414 8.12115C16.6448 8.57996 16.3592 8.99527 16.0013 9.3431L14.7558 10.5886C14.4303 10.914 13.9027 10.914 13.5772 10.5886L9.41058 6.42194C9.08514 6.0965 9.08514 5.56886 9.41058 5.24343L10.6561 3.99792C11.0039 3.63996 11.4192 3.35442 11.878 3.1578C12.339 2.96023 12.8348 2.85638 13.3363 2.85231C13.8379 2.84824 14.3352 2.94402 14.7994 3.13408C15.0034 3.21764 15.1993 3.31868 15.3848 3.43583L16.9106 1.91009C17.236 1.58466 17.7637 1.58466 18.0891 1.91009ZM14.683 4.97859C14.5267 4.85425 14.3533 4.75242 14.1678 4.67645C13.9083 4.5702 13.6302 4.51665 13.3498 4.51892C13.0694 4.5212 12.7923 4.57926 12.5345 4.68971C12.2768 4.80017 12.0436 4.96082 11.8486 5.16229L11.8391 5.17194L11.1783 5.83268L14.1665 8.82084L14.8272 8.16009L14.8369 8.1506C15.0384 7.95557 15.199 7.72238 15.3095 7.46464C15.4199 7.2069 15.478 6.92975 15.4803 6.64934C15.4825 6.36894 15.429 6.09088 15.3227 5.83138C15.2468 5.64585 15.1449 5.47245 15.0206 5.31621C14.9512 5.2787 14.8859 5.23061 14.8272 5.17194C14.7686 5.11327 14.7205 5.04803 14.683 4.97859ZM8.92243 8.57676C9.24786 8.9022 9.24786 9.42983 8.92243 9.75527L7.84502 10.8327L9.1665 12.1542L10.2439 11.0768C10.5694 10.7513 11.097 10.7513 11.4224 11.0768C11.7479 11.4022 11.7479 11.9298 11.4224 12.2553L10.345 13.3327L10.5891 13.5768C10.9145 13.9022 10.9145 14.4298 10.5891 14.7553L9.34359 16.0008C8.99576 16.3587 8.58045 16.6443 8.12164 16.8409C7.66063 17.0385 7.16491 17.1423 6.66336 17.1464C6.16182 17.1505 5.66448 17.0547 5.20032 16.8646C4.99625 16.7811 4.80039 16.68 4.61483 16.5629L3.08909 18.0886C2.76366 18.414 2.23602 18.414 1.91058 18.0886C1.58514 17.7632 1.58514 17.2355 1.91058 16.9101L3.43632 15.3844C3.31917 15.1988 3.21813 15.0029 3.13457 14.7989C2.94451 14.3347 2.84873 13.8374 2.8528 13.3358C2.85687 12.8343 2.96072 12.3386 3.15828 11.8776C3.35491 11.4187 3.64045 11.0034 3.99841 10.6556L5.24392 9.41009C5.56935 9.08466 6.09699 9.08466 6.42243 9.41009L6.6665 9.65417L7.74392 8.57676C8.06935 8.25132 8.59699 8.25132 8.92243 8.57676ZM5.83317 11.1779L5.17243 11.8386L5.16278 11.8481C4.96131 12.0431 4.80066 12.2763 4.6902 12.5341C4.57975 12.7918 4.52169 13.069 4.51941 13.3494C4.51713 13.6298 4.57068 13.9078 4.67694 14.1673C4.75291 14.3528 4.85473 14.5262 4.97907 14.6825C5.04852 14.72 5.11376 14.7681 5.17243 14.8268C5.23109 14.8854 5.27919 14.9507 5.3167 15.0201C5.47294 15.1444 5.64634 15.2463 5.83187 15.3222C6.09137 15.4285 6.36943 15.4821 6.64983 15.4798C6.93024 15.4775 7.20739 15.4194 7.46513 15.309C7.72287 15.1985 7.95605 15.0379 8.15109 14.8364L8.16058 14.8268L8.82133 14.166L5.83317 11.1779Z" fill="currentColor"/>
</svg>
