<svg viewBox="0 0 24 24" fill="none" xmlns="http://www.w3.org/2000/svg">
  <path fill-rule="evenodd" clip-rule="evenodd"
    d="M3 14C3 9.032 7.03 5 12 5C16.97 5 21 9.032 21 14C21 15.053 20.67 16.38 20.071 17.42C19.464 18.474 18.738 18.99 18.019 19H18H16H12H8H5.981C5.261 18.99 4.536 18.474 3.929 17.42C3.33 16.38 3 15.053 3 14ZM12 3C5.925 3 1 7.928 1 14C1 15.398 1.42 17.07 2.196 18.418C2.959 19.743 4.225 21 6 21H6.04C7.081 20.958 9 21 9 21L12 20.999L15 21L17.96 20.999L17.98 21H18C19.775 21 21.041 19.743 21.804 18.418C22.58 17.071 23 15.398 23 14C23 7.928 18.075 3 12 3ZM16.95 10.464C17.0455 10.3718 17.1217 10.2614 17.1741 10.1394C17.2265 10.0174 17.2541 9.88618 17.2553 9.7534C17.2564 9.62062 17.2311 9.48894 17.1808 9.36605C17.1305 9.24315 17.0563 9.1315 16.9624 9.03761C16.8685 8.94371 16.7568 8.86946 16.634 8.81918C16.5111 8.7689 16.3794 8.7436 16.2466 8.74475C16.1138 8.7459 15.9826 8.77349 15.8606 8.8259C15.7386 8.87831 15.6282 8.95449 15.536 9.05L12.518 12.068C12.0927 11.954 11.6417 11.9835 11.2349 12.152C10.8282 12.3205 10.4883 12.6184 10.2682 12.9997C10.048 13.381 9.95984 13.8243 10.0173 14.2608C10.0748 14.6973 10.2747 15.1027 10.586 15.414C10.8973 15.7253 11.3027 15.9252 11.7392 15.9827C12.1757 16.0402 12.619 15.952 13.0003 15.7318C13.3816 15.5117 13.6795 15.1718 13.848 14.7651C14.0165 14.3583 14.046 13.9073 13.932 13.482L16.95 10.464ZM5 15C5.26522 15 5.51957 14.8946 5.70711 14.7071C5.89464 14.5196 6 14.2652 6 14C6 13.7348 5.89464 13.4804 5.70711 13.2929C5.51957 13.1054 5.26522 13 5 13C4.73478 13 4.48043 13.1054 4.29289 13.2929C4.10536 13.4804 4 13.7348 4 14C4 14.2652 4.10536 14.5196 4.29289 14.7071C4.48043 14.8946 4.73478 15 5 15ZM20 14C20 14.2652 19.8946 14.5196 19.7071 14.7071C19.5196 14.8946 19.2652 15 19 15C18.7348 15 18.4804 14.8946 18.2929 14.7071C18.1054 14.5196 18 14.2652 18 14C18 13.7348 18.1054 13.4804 18.2929 13.2929C18.4804 13.1054 18.7348 13 19 13C19.2652 13 19.5196 13.1054 19.7071 13.2929C19.8946 13.4804 20 13.7348 20 14ZM12 8C12.2652 8 12.5196 7.89464 12.7071 7.70711C12.8946 7.51957 13 7.26522 13 7C13 6.73478 12.8946 6.48043 12.7071 6.29289C12.5196 6.10536 12.2652 6 12 6C11.7348 6 11.4804 6.10536 11.2929 6.29289C11.1054 6.48043 11 6.73478 11 7C11 7.26522 11.1054 7.51957 11.2929 7.70711C11.4804 7.89464 11.7348 8 12 8Z"
    fill="currentColor" />
</svg>
