<svg viewBox="0 0 24 24" fill="none" xmlns="http://www.w3.org/2000/svg">
<path fill-rule="evenodd" clip-rule="evenodd" d="M10.257 5.09899C11.022 3.73899 12.979 3.73899 13.743 5.09899L19.323 15.019C20.073 16.353 19.11 17.999 17.581 17.999H6.41997C4.88997 17.999 3.92697 16.353 4.67697 15.019L10.257 5.09899ZM13 15C13 15.2652 12.8946 15.5196 12.7071 15.7071C12.5195 15.8946 12.2652 16 12 16C11.7348 16 11.4804 15.8946 11.2929 15.7071C11.1053 15.5196 11 15.2652 11 15C11 14.7348 11.1053 14.4804 11.2929 14.2929C11.4804 14.1054 11.7348 14 12 14C12.2652 14 12.5195 14.1054 12.7071 14.2929C12.8946 14.4804 13 14.7348 13 15ZM12 6.99999C11.7348 6.99999 11.4804 7.10535 11.2929 7.29289C11.1053 7.48042 11 7.73478 11 7.99999V11C11 11.2652 11.1053 11.5196 11.2929 11.7071C11.4804 11.8946 11.7348 12 12 12C12.2652 12 12.5195 11.8946 12.7071 11.7071C12.8946 11.5196 13 11.2652 13 11V7.99999C13 7.73478 12.8946 7.48042 12.7071 7.29289C12.5195 7.10535 12.2652 6.99999 12 6.99999Z" fill="currentColor"/>
</svg>
