<svg viewBox="0 0 24 24" fill="none" xmlns="http://www.w3.org/2000/svg">
  <path d="M23 16.4286L18.3333 21L15.0667 17.8L16.4667 16.4286L18.3333 18.2571L21.6 15.0571L23 16.4286ZM12.2667 9.11429C13.0093 9.11429 13.7215 9.40326 14.2466 9.91765C14.7717 10.432 15.0667 11.1297 15.0667 11.8571C15.0667 12.5846 14.7717 13.2823 14.2466 13.7966C13.7215 14.311 13.0093 14.6 12.2667 14.6C11.5241 14.6 10.8119 14.311 10.2868 13.7966C9.76167 13.2823 9.46667 12.5846 9.46667 11.8571C9.46667 11.1297 9.76167 10.432 10.2868 9.91765C10.8119 9.40326 11.5241 9.11429 12.2667 9.11429ZM12.2667 5C16.9333 5 20.9187 7.84343 22.5333 11.8571C22.3 12.4514 22.0107 13.0091 21.6747 13.5486C21.1286 13.2249 20.5281 12.9989 19.9013 12.8811L20.4987 11.8571C19.7443 10.3483 18.5729 9.07703 17.1177 8.18788C15.6625 7.29873 13.9818 6.82737 12.2667 6.82737C10.5516 6.82737 8.87088 7.29873 7.41565 8.18788C5.96042 9.07703 4.78904 10.3483 4.03467 11.8571C4.78921 13.3658 5.96067 14.6368 7.41588 15.5257C8.8711 16.4146 10.5517 16.8858 12.2667 16.8857L13.396 16.8217C13.2653 17.2789 13.2 17.7634 13.2 18.2571V18.6777L12.2667 18.7143C7.6 18.7143 3.61467 15.8709 2 11.8571C3.61467 7.84343 7.6 5 12.2667 5Z" fill="currentColor"/>
</svg>
