<svg viewBox="0 0 24 24" fill="none" xmlns="http://www.w3.org/2000/svg">
  <path
    d="M15.5417 16C15.5417 16.275 15.4397 16.5104 15.2357 16.7063C15.0317 16.9021 14.7865 17 14.5 17C14.2135 17 13.9683 16.9021 13.7643 16.7063C13.5603 16.5104 13.4583 16.275 13.4583 16C13.4583 15.725 13.5603 15.4896 13.7643 15.2938C13.9683 15.0979 14.2135 15 14.5 15C14.7865 15 15.0317 15.0979 15.2357 15.2938C15.4397 15.4896 15.5417 15.725 15.5417 16ZM18.875 16C18.875 16.275 18.773 16.5104 18.569 16.7063C18.365 16.9021 18.1198 17 17.8333 17C17.5469 17 17.3016 16.9021 17.0977 16.7063C16.8937 16.5104 16.7917 16.275 16.7917 16C16.7917 15.725 16.8937 15.4896 17.0977 15.2938C17.3016 15.0979 17.5469 15 17.8333 15C18.1198 15 18.365 15.0979 18.569 15.2938C18.773 15.4896 18.875 15.725 18.875 16ZM20.3333 18V14C20.3333 13.8917 20.2921 13.7979 20.2096 13.7188C20.1272 13.6396 20.0295 13.6 19.9167 13.6H4.08333C3.97049 13.6 3.87283 13.6396 3.79036 13.7188C3.7079 13.7979 3.66667 13.8917 3.66667 14V18C3.66667 18.1083 3.7079 18.2021 3.79036 18.2812C3.87283 18.3604 3.97049 18.4 4.08333 18.4H19.9167C20.0295 18.4 20.1272 18.3604 20.2096 18.2812C20.2921 18.2021 20.3333 18.1083 20.3333 18ZM4.31771 12H19.6823L17.638 5.975C17.6033 5.86667 17.5339 5.77708 17.4297 5.70625C17.3255 5.63542 17.2127 5.6 17.0911 5.6H6.90885C6.78733 5.6 6.67448 5.63542 6.57031 5.70625C6.46615 5.77708 6.3967 5.86667 6.36198 5.975L4.31771 12ZM22 14V18C22 18.55 21.796 19.0208 21.388 19.4125C20.98 19.8042 20.4896 20 19.9167 20H4.08333C3.51042 20 3.01997 19.8042 2.61198 19.4125C2.20399 19.0208 2 18.55 2 18V14C2 13.7917 2.06944 13.4792 2.20833 13.0625L4.77344 5.4875C4.92101 5.04583 5.19444 4.6875 5.59375 4.4125C5.99306 4.1375 6.43142 4 6.90885 4H17.0911C17.5686 4 18.0069 4.1375 18.4062 4.4125C18.8056 4.6875 19.079 5.04583 19.2266 5.4875L21.7917 13.0625C21.9306 13.4792 22 13.7917 22 14Z"
    fill="currentColor" />
</svg>
