<svg viewBox="0 0 24 24" fill="none" xmlns="http://www.w3.org/2000/svg">
  <path fill-rule="evenodd" clip-rule="evenodd"
    d="M3.75 5.77778C3.50688 5.77778 3.27373 5.87143 3.10182 6.03813C2.92991 6.20483 2.83333 6.43092 2.83333 6.66667V17.3333C2.83333 17.5691 2.92991 17.7952 3.10182 17.9619C3.27373 18.1286 3.50688 18.2222 3.75 18.2222H20.25C20.4931 18.2222 20.7263 18.1286 20.8982 17.9619C21.0701 17.7952 21.1667 17.5691 21.1667 17.3333V6.66667C21.1667 6.43092 21.0701 6.20483 20.8982 6.03813C20.7263 5.87143 20.4931 5.77778 20.25 5.77778H3.75ZM1 6.66667C1 5.95942 1.28973 5.28115 1.80546 4.78105C2.32118 4.28095 3.02065 4 3.75 4H20.25C20.9793 4 21.6788 4.28095 22.1945 4.78105C22.7103 5.28115 23 5.95942 23 6.66667V17.3333C23 18.0406 22.7103 18.7189 22.1945 19.219C21.6788 19.719 20.9793 20 20.25 20H3.75C3.02065 20 2.32118 19.719 1.80546 19.219C1.28973 18.7189 1 18.0406 1 17.3333L1 6.66667ZM6.5 10.6667C6.5 10.313 6.64487 9.97391 6.90273 9.72386C7.16059 9.47381 7.51033 9.33333 7.875 9.33333C8.23967 9.33333 8.58941 9.47381 8.84727 9.72386C9.10513 9.97391 9.25 10.313 9.25 10.6667C9.25 11.0203 9.10513 11.3594 8.84727 11.6095C8.58941 11.8595 8.23967 12 7.875 12C7.51033 12 7.16059 11.8595 6.90273 11.6095C6.64487 11.3594 6.5 11.0203 6.5 10.6667ZM10.328 12.6729C10.7222 12.2197 10.9746 11.6667 11.0556 11.079C11.1365 10.4914 11.0426 9.8935 10.7849 9.35586C10.5272 8.81821 10.1164 8.36316 9.60099 8.04429C9.08554 7.72543 8.48687 7.55602 7.87546 7.55602C7.26405 7.55602 6.66537 7.72543 6.14992 8.04429C5.63448 8.36316 5.22372 8.81821 4.96602 9.35586C4.70833 9.8935 4.61442 10.4914 4.69537 11.079C4.77631 11.6667 5.02874 12.2197 5.42292 12.6729C4.37425 13.3316 3.75 14.4062 3.75 15.5556C3.75 15.7913 3.84658 16.0174 4.01849 16.1841C4.19039 16.3508 4.42355 16.4444 4.66667 16.4444C4.90978 16.4444 5.14294 16.3508 5.31485 16.1841C5.48676 16.0174 5.58333 15.7913 5.58333 15.5556C5.58333 14.768 6.31667 13.7778 7.875 13.7778C9.43333 13.7778 10.1667 14.768 10.1667 15.5556C10.1667 15.7913 10.2632 16.0174 10.4352 16.1841C10.6071 16.3508 10.8402 16.4444 11.0833 16.4444C11.3264 16.4444 11.5596 16.3508 11.7315 16.1841C11.9034 16.0174 12 15.7913 12 15.5556C12 14.4062 11.3748 13.3333 10.328 12.6729ZM12.9167 8.44444C12.6736 8.44444 12.4404 8.53809 12.2685 8.70479C12.0966 8.87149 12 9.09759 12 9.33333C12 9.56908 12.0966 9.79517 12.2685 9.96187C12.4404 10.1286 12.6736 10.2222 12.9167 10.2222H18.4167C18.6598 10.2222 18.8929 10.1286 19.0648 9.96187C19.2368 9.79517 19.3333 9.56908 19.3333 9.33333C19.3333 9.09759 19.2368 8.87149 19.0648 8.70479C18.8929 8.53809 18.6598 8.44444 18.4167 8.44444H12.9167ZM13.8333 12C13.5902 12 13.3571 12.0937 13.1852 12.2604C13.0132 12.427 12.9167 12.6531 12.9167 12.8889C12.9167 13.1246 13.0132 13.3507 13.1852 13.5174C13.3571 13.6841 13.5902 13.7778 13.8333 13.7778H17.5C17.7431 13.7778 17.9763 13.6841 18.1482 13.5174C18.3201 13.3507 18.4167 13.1246 18.4167 12.8889C18.4167 12.6531 18.3201 12.427 18.1482 12.2604C17.9763 12.0937 17.7431 12 17.5 12H13.8333Z"
    fill="currentColor" />
</svg>
