<svg viewBox="0 0 24 24" fill="none" xmlns="http://www.w3.org/2000/svg">
<path d="M11.5144 2.12584C11.8164 1.95805 12.1837 1.95805 12.4857 2.12584L21.4857 7.12584C21.8032 7.30221 22.0001 7.63683 22.0001 8C22.0001 8.36317 21.8032 8.69779 21.4857 8.87416L12.4857 13.8742C12.1837 14.0419 11.8164 14.0419 11.5144 13.8742L2.51442 8.87416C2.19695 8.69779 2.00006 8.36317 2.00006 8C2.00006 7.63683 2.19695 7.30221 2.51442 7.12584L11.5144 2.12584ZM5.05919 8L12.0001 11.856L18.9409 8L12.0001 4.14396L5.05919 8Z" fill="currentColor"/>
<path d="M2.1259 11.5144C2.39412 11.0316 3.00292 10.8576 3.4857 11.1258L12.0001 15.856L20.5144 11.1258C20.9972 10.8576 21.606 11.0316 21.8742 11.5144C22.1424 11.9971 21.9685 12.6059 21.4857 12.8742L12.4857 17.8742C12.1837 18.0419 11.8164 18.0419 11.5144 17.8742L2.51442 12.8742C2.03163 12.6059 1.85769 11.9971 2.1259 11.5144Z" fill="currentColor"/>
<path d="M2.1259 15.5144C2.39412 15.0316 3.00292 14.8576 3.4857 15.1258L12.0001 19.856L20.5144 15.1258C20.9972 14.8576 21.606 15.0316 21.8742 15.5144C22.1424 15.9971 21.9685 16.6059 21.4857 16.8742L12.4857 21.8742C12.1837 22.0419 11.8164 22.0419 11.5144 21.8742L2.51442 16.8742C2.03163 16.6059 1.85769 15.9971 2.1259 15.5144Z" fill="currentColor"/>
</svg>
