<svg xmlns="http://www.w3.org/2000/svg" fill="none" viewBox="0 0 24 24">
  <path fill="currentColor" fill-rule="evenodd" d="M11.5 20C11.5 19.4477 11.0523 19 10.5 19H5.5V5H10.5C11.0523 5 11.5 4.55228 11.5 4C11.5 3.44771 11.0523 3 10.5 3H5.5C4.39543 3 3.5 3.89543 3.5 5V19C3.5 20.1046 4.39543 21 5.5 21H10.5C11.0523 21 11.5 20.5523 11.5 20Z"
    clip-rule="evenodd" />
  <path fill="currentColor" fill-rule="evenodd" d="M22.2136 12.7005C22.3063 12.6062 22.3764 12.498 22.4241 12.3828C22.4727 12.2657 22.4996 12.1375 22.5 12.003L22.5 12L22.5 11.997C22.4992 11.7421 22.4016 11.4874 22.2071 11.2929L18.2071 7.29289C17.8166 6.90237 17.1834 6.90237 16.7929 7.29289C16.4024 7.68342 16.4024 8.31658 16.7929 8.70711L19.0858 11H9.5C8.94771 11 8.5 11.4477 8.5 12C8.5 12.5523 8.94771 13 9.5 13H19.0858L16.7929 15.2929C16.4024 15.6834 16.4024 16.3166 16.7929 16.7071C17.1834 17.0976 17.8166 17.0976 18.2071 16.7071L22.2064 12.7078L22.2136 12.7005Z"
    clip-rule="evenodd" />
</svg>
