<svg viewBox="0 0 24 24" fill="none" xmlns="http://www.w3.org/2000/svg">
  <path
    d="M2 6C2 4.89543 2.89543 4 4 4H9C9.26522 4 9.51957 4.10536 9.70711 4.29289L11.4142 6H20C21.1046 6 22 6.89543 22 8V18C22 19.1046 21.1046 20 20 20H4C2.89543 20 2 19.1046 2 18V6ZM8.58579 6L4 6V18H20V8H11C10.7348 8 10.4804 7.89464 10.2929 7.70711L8.58579 6Z"
    fill="currentColor" />
  <path
    d="M12 16.5C11.4477 16.5 11 16.0523 11 15.5V12.9142L10.7071 13.2071C10.3166 13.5976 9.68342 13.5976 9.29289 13.2071C8.90237 12.8166 8.90237 12.1834 9.29289 11.7929L11.2929 9.79289C11.6834 9.40237 12.3166 9.40237 12.7071 9.79289L14.7071 11.7929C15.0976 12.1834 15.0976 12.8166 14.7071 13.2071C14.3166 13.5976 13.6834 13.5976 13.2929 13.2071L13 12.9142V15.5C13 16.0523 12.5523 16.5 12 16.5Z"
    fill="currentColor" />
</svg>
