<svg viewBox="0 0 24 24" fill="none" xmlns="http://www.w3.org/2000/svg">
  <mask id="mask0_4807_53559" style="mask-type:alpha" maskUnits="userSpaceOnUse" x="2" y="1" width="20" height="22">
    <path fill-rule="evenodd" clip-rule="evenodd"
      d="M12 14.2407C12.4508 14.2407 12.8163 14.6055 12.8163 15.0556V18.1111C12.8163 18.5611 12.4508 18.9259 12 18.9259C11.5492 18.9259 11.1837 18.5611 11.1837 18.1111V15.0556C11.1837 14.6055 11.5492 14.2407 12 14.2407ZM2 20.1481C2 19.6981 2.36548 19.3333 2.81633 19.3333H9.95918C10.41 19.3333 10.7755 19.6981 10.7755 20.1481C10.7755 20.5982 10.41 20.963 9.95918 20.963H2.81633C2.36548 20.963 2 20.5982 2 20.1481ZM13.2245 20.1481C13.2245 19.6981 13.59 19.3333 14.0408 19.3333H21.1837C21.6345 19.3333 22 19.6981 22 20.1481C22 20.5982 21.6345 20.963 21.1837 20.963H14.0408C13.59 20.963 13.2245 20.5982 13.2245 20.1481Z"
      fill="white" />
    <path fill-rule="evenodd" clip-rule="evenodd"
      d="M12 18.9259C11.6752 18.9259 11.3638 19.0547 11.1342 19.2839C10.9045 19.5131 10.7755 19.824 10.7755 20.1481C10.7755 20.4723 10.9045 20.7832 11.1342 21.0124C11.3638 21.2416 11.6752 21.3704 12 21.3704C12.3248 21.3704 12.6362 21.2416 12.8658 21.0124C13.0955 20.7832 13.2245 20.4723 13.2245 20.1481C13.2245 19.824 13.0955 19.5131 12.8658 19.2839C12.6362 19.0547 12.3248 18.9259 12 18.9259ZM9.9797 18.1316C10.5155 17.5968 11.2422 17.2963 12 17.2963C12.7578 17.2963 13.4845 17.5968 14.0203 18.1316C14.5561 18.6664 14.8571 19.3918 14.8571 20.1481C14.8571 20.9045 14.5561 21.6299 14.0203 22.1647C13.4845 22.6995 12.7578 23 12 23C11.2422 23 10.5155 22.6995 9.9797 22.1647C9.44388 21.6299 9.14286 20.9045 9.14286 20.1481C9.14286 19.3918 9.44388 18.6664 9.9797 18.1316Z"
      fill="white" />
    <path fill-rule="evenodd" clip-rule="evenodd"
      d="M4.55102 8.43518C4.55102 4.32869 7.88589 1 12 1C16.1141 1 19.449 4.32869 19.449 8.43518C19.449 12.5417 16.1141 15.8704 12 15.8704C7.88589 15.8704 4.55102 12.5417 4.55102 8.43518ZM6.2405 9.25C6.63736 12.0707 9.06464 14.2407 12 14.2407C14.9354 14.2407 17.3626 12.0707 17.7595 9.25H6.2405ZM6.2405 7.62037H17.7595C17.3626 4.79972 14.9354 2.62963 12 2.62963C9.06464 2.62963 6.63736 4.79972 6.2405 7.62037Z"
      fill="white" />
    <path fill-rule="evenodd" clip-rule="evenodd"
      d="M10.9581 4.04634C10.5408 5.1294 10.2653 6.68082 10.2653 8.43518C10.2653 10.1895 10.5408 11.741 10.9581 12.824C11.1679 13.3683 11.3976 13.7528 11.6111 13.9871C11.8244 14.2212 11.957 14.2407 12 14.2407C12.043 14.2407 12.1756 14.2212 12.3889 13.9871C12.6024 13.7528 12.8321 13.3683 13.0419 12.824C13.4592 11.741 13.7347 10.1895 13.7347 8.43518C13.7347 6.68082 13.4592 5.1294 13.0419 4.04634C12.8321 3.50209 12.6024 3.11757 12.3889 2.88324C12.1756 2.64913 12.043 2.62963 12 2.62963C11.957 2.62963 11.8244 2.64913 11.6111 2.88324C11.3976 3.11757 11.1679 3.50209 10.9581 4.04634ZM10.4032 1.78687C10.8003 1.35098 11.3387 1 12 1C12.6613 1 13.1997 1.35098 13.5968 1.78687C13.9937 2.22254 14.3137 2.80751 14.5657 3.4613C15.0716 4.77431 15.3673 6.53307 15.3673 8.43518C15.3673 10.3373 15.0716 12.0961 14.5657 13.4091C14.3137 14.0629 13.9937 14.6478 13.5968 15.0835C13.1997 15.5194 12.6613 15.8704 12 15.8704C11.3387 15.8704 10.8003 15.5194 10.4032 15.0835C10.0063 14.6478 9.68627 14.0629 9.43433 13.4091C8.92835 12.0961 8.63265 10.3373 8.63265 8.43518C8.63265 6.53307 8.92835 4.77431 9.43433 3.4613C9.68627 2.80751 10.0063 2.22254 10.4032 1.78687Z"
      fill="white" />
    <path fill-rule="evenodd" clip-rule="evenodd"
      d="M4.55102 8.43518C4.55102 7.98518 4.9165 7.62037 5.36735 7.62037H18.6327C19.0835 7.62037 19.449 7.98518 19.449 8.43518C19.449 8.88519 19.0835 9.25 18.6327 9.25H5.36735C4.9165 9.25 4.55102 8.88519 4.55102 8.43518Z"
      fill="white" />
  </mask>
  <g mask="url(#mask0_4807_53559)">
    <path d="M0 0H24V24H0V0Z" fill="currentColor" />
  </g>
</svg>
