<svg viewBox="0 0 24 24" fill="none" xmlns="http://www.w3.org/2000/svg">
  <path d="M6.16174 10C6.09507 10 6.03507 9.97667 5.98174 9.93C5.93507 9.88333 5.91174 9.82333 5.91174 9.75V4.78L4.47174 5.89C4.41174 5.93667 4.34841 5.95333 4.28174 5.94C4.22174 5.92667 4.16841 5.89 4.12174 5.83L3.62174 5.18C3.58174 5.12 3.56507 5.05667 3.57174 4.99C3.58507 4.92333 3.62174 4.87 3.68174 4.83L5.96174 3.07C6.00174 3.04333 6.03841 3.02667 6.07174 3.02C6.11174 3.00667 6.15507 3 6.20174 3H7.26174C7.32841 3 7.38507 3.02333 7.43174 3.07C7.47841 3.11667 7.50174 3.17667 7.50174 3.25V9.75C7.50174 9.82333 7.47841 9.88333 7.43174 9.93C7.38507 9.97667 7.32841 10 7.26174 10H6.16174Z" fill="currentColor"/>
  <path d="M3.25 20.12C3.17667 20.12 3.11667 20.0967 3.07 20.05C3.02333 20.0033 3 19.9433 3 19.87V19.27C3 19.2167 3.01333 19.1467 3.04 19.06C3.07333 18.9667 3.14333 18.8767 3.25 18.79L4.57 17.48C5.05667 17.1067 5.45 16.79 5.75 16.53C6.05667 16.27 6.28333 16.0333 6.43 15.82C6.57667 15.6067 6.65 15.4 6.65 15.2C6.65 14.94 6.57667 14.7267 6.43 14.56C6.29 14.3867 6.06 14.3 5.74 14.3C5.52667 14.3 5.34667 14.3467 5.2 14.44C5.06 14.5267 4.95 14.6433 4.87 14.79C4.79 14.9367 4.73667 15.0967 4.71 15.27C4.69 15.3567 4.64667 15.4167 4.58 15.45C4.52 15.4833 4.45667 15.5 4.39 15.5H3.33C3.26333 15.5 3.21 15.48 3.17 15.44C3.13 15.3933 3.11 15.3433 3.11 15.29C3.11667 14.9833 3.18 14.6933 3.3 14.42C3.42667 14.1467 3.60333 13.9033 3.83 13.69C4.05667 13.4767 4.33 13.31 4.65 13.19C4.97 13.0633 5.33333 13 5.74 13C6.3 13 6.77 13.0933 7.15 13.28C7.53 13.46 7.81667 13.71 8.01 14.03C8.20333 14.35 8.3 14.72 8.3 15.14C8.3 15.46 8.23333 15.7567 8.1 16.03C7.97333 16.3033 7.78667 16.5667 7.54 16.82C7.29333 17.0667 7 17.3233 6.66 17.59L5.48 18.77H8.2C8.27333 18.77 8.33333 18.7933 8.38 18.84C8.42667 18.8867 8.45 18.9467 8.45 19.02V19.87C8.45 19.9433 8.42667 20.0033 8.38 20.05C8.33333 20.0967 8.27333 20.12 8.2 20.12H3.25Z" fill="currentColor"/>
  <path fill-rule="evenodd" clip-rule="evenodd" d="M17.5703 5.99956C17.5703 5.99971 17.5703 5.99985 17.5703 6L17.5703 14C17.5703 14.0002 17.5703 14.0005 17.5703 14.0007L17.5703 16.5858L19.8632 14.2929C20.2537 13.9024 20.8869 13.9024 21.2774 14.2929C21.6679 14.6834 21.6679 15.3166 21.2774 15.7071L17.2774 19.7071C17.0823 19.9022 16.8267 19.9998 16.571 20L16.5696 20C16.3139 19.9998 16.0583 19.9022 15.8632 19.7071L11.8632 15.7071C11.4727 15.3166 11.4727 14.6834 11.8632 14.2929C12.2537 13.9024 12.8869 13.9024 13.2774 14.2929L15.5703 16.5858L15.5703 14L15.5703 6L15.5703 4C15.5703 3.44772 16.018 3 16.5703 3C17.1226 3 17.5703 3.44772 17.5703 4L17.5703 5.99956Z" fill="currentColor"/>
</svg>
