<svg width="24" height="24" viewBox="0 0 24 24" fill="none" xmlns="http://www.w3.org/2000/svg">
<line x1="11.8999" y1="3.09961" x2="11.8999" y2="9.89961" stroke="#1A2024" stroke-width="2" stroke-linecap="round"/>
<line x1="20.8999" y1="11.9004" x2="14.0999" y2="11.9004" stroke="#1A2024" stroke-width="2" stroke-linecap="round"/>
<line x1="12.1001" y1="20.9004" x2="12.1001" y2="14.1004" stroke="#1A2024" stroke-width="2" stroke-linecap="round"/>
<line x1="3.1001" y1="12.0996" x2="9.9001" y2="12.0996" stroke="#1A2024" stroke-width="2" stroke-linecap="round"/>
<line x1="12" y1="2.41421" x2="9.01421" y2="5.4" stroke="#1A2024" stroke-width="2" stroke-linecap="round"/>
<line x1="21.5858" y1="12" x2="18.6" y2="9.01421" stroke="#1A2024" stroke-width="2" stroke-linecap="round"/>
<line x1="12" y1="21.5858" x2="14.9858" y2="18.6" stroke="#1A2024" stroke-width="2" stroke-linecap="round"/>
<line x1="2.41421" y1="12" x2="5.4" y2="14.9858" stroke="#1A2024" stroke-width="2" stroke-linecap="round"/>
<line x1="1" y1="-1" x2="5.22254" y2="-1" transform="matrix(0.707107 0.707107 0.707107 -0.707107 12 1)" stroke="#1A2024" stroke-width="2" stroke-linecap="round"/>
<line x1="1" y1="-1" x2="5.22254" y2="-1" transform="matrix(-0.707107 0.707107 0.707107 0.707107 23 12)" stroke="#1A2024" stroke-width="2" stroke-linecap="round"/>
<line x1="1" y1="-1" x2="5.22254" y2="-1" transform="matrix(-0.707107 -0.707107 -0.707107 0.707107 12 23)" stroke="#1A2024" stroke-width="2" stroke-linecap="round"/>
<line x1="1" y1="-1" x2="5.22254" y2="-1" transform="matrix(0.707107 -0.707107 -0.707107 -0.707107 1 12)" stroke="#1A2024" stroke-width="2" stroke-linecap="round"/>
</svg>
