<svg viewBox="0 0 24 24" fill="none" xmlns="http://www.w3.org/2000/svg">
  <path
    d="M2.77148 16V8.72729H5.77575C6.32025 8.72729 6.79019 8.83383 7.18555 9.0469C7.58327 9.2576 7.88986 9.55234 8.10529 9.93113C8.32073 10.3076 8.42844 10.7455 8.42844 11.2451C8.42844 11.7469 8.31836 12.1861 8.09819 12.5625C7.88039 12.9366 7.56907 13.2266 7.16424 13.4326C6.75941 13.6385 6.27882 13.7415 5.72248 13.7415H3.86879V12.3566H5.39577C5.66093 12.3566 5.88228 12.3104 6.05984 12.2181C6.23976 12.1257 6.37589 11.9967 6.46822 11.831C6.56055 11.6629 6.60671 11.4676 6.60671 11.2451C6.60671 11.0201 6.56055 10.826 6.46822 10.6627C6.37589 10.4969 6.23976 10.3691 6.05984 10.2791C5.87991 10.1892 5.65856 10.1442 5.39577 10.1442H4.5293V16H2.77148Z"
    fill="currentColor" />
  <path
    d="M11.9231 16H9.23492V8.72729H11.9196C12.6606 8.72729 13.2986 8.87289 13.8336 9.16408C14.371 9.45291 14.7853 9.86958 15.0765 10.4141C15.3677 10.9562 15.5133 11.6049 15.5133 12.3601C15.5133 13.1177 15.3677 13.7687 15.0765 14.3132C14.7877 14.8577 14.3746 15.2756 13.8372 15.5668C13.2998 15.8556 12.6618 16 11.9231 16ZM10.9927 14.5014H11.8557C12.2629 14.5014 12.6073 14.4328 12.889 14.2955C13.1731 14.1558 13.3874 13.9297 13.5318 13.6172C13.6786 13.3023 13.752 12.8833 13.752 12.3601C13.752 11.8369 13.6786 11.4202 13.5318 11.1101C13.385 10.7976 13.1684 10.5727 12.8819 10.4354C12.5978 10.2957 12.2475 10.2259 11.8308 10.2259H10.9927V14.5014Z"
    fill="currentColor" />
  <path d="M16.4796 16V8.72729H21.4441V10.1549H18.2374V11.6463H21.128V13.0774H18.2374V16H16.4796Z"
    fill="currentColor" />
</svg>
