<svg viewBox="0 0 21 20" fill="none" xmlns="http://www.w3.org/2000/svg">
<g clip-path="url(#clip0_11369_179791)">
<path d="M16.6334 2.5C17.0754 2.5 17.4993 2.67559 17.8119 2.98816C18.1245 3.30072 18.3 3.72464 18.3 4.16667V15.8333C18.3 16.2754 18.1245 16.6993 17.8119 17.0118C17.4993 17.3244 17.0754 17.5 16.6334 17.5H4.96672C4.52469 17.5 4.10076 17.3244 3.7882 17.0118C3.47564 16.6993 3.30005 16.2754 3.30005 15.8333V4.16667C3.30005 3.72464 3.47564 3.30072 3.7882 2.98816C4.10076 2.67559 4.52469 2.5 4.96672 2.5H16.6334ZM16.6334 4.16667H4.96672V15.8333H16.6334V4.16667ZM10.8309 6.44083C11.0567 5.7175 12.0309 5.64917 12.3725 6.2875L12.4159 6.37917L13.8642 10H14.9667C15.1791 10.0002 15.3834 10.0816 15.5379 10.2274C15.6923 10.3732 15.7852 10.5725 15.7977 10.7845C15.8101 10.9965 15.7412 11.2053 15.6048 11.3682C15.4685 11.5311 15.2751 11.6357 15.0642 11.6608L14.9667 11.6667H13.3059C13.155 11.6668 13.0068 11.6263 12.8769 11.5494C12.747 11.4726 12.6402 11.3623 12.5675 11.23L12.5242 11.1383L11.73 9.15167L10.3517 13.5625C10.1359 14.2525 9.22255 14.3567 8.84588 13.775L8.79588 13.6875L7.78421 11.6667H6.63338C6.42098 11.6664 6.21669 11.5851 6.06224 11.4393C5.90779 11.2935 5.81485 11.0942 5.80241 10.8822C5.78996 10.6701 5.85894 10.4614 5.99527 10.2985C6.13159 10.1356 6.32497 10.0309 6.53588 10.0058L6.63338 10H8.29505C8.57838 10 8.84005 10.1417 8.99505 10.3742L9.04755 10.4658L9.37088 11.1125L10.8309 6.44083Z" fill="currentColor"/>
</g>
<defs>
<clipPath id="clip0_11369_179791">
<rect width="20" height="20" fill="white" transform="translate(0.800049)"/>
</clipPath>
</defs>
</svg>
