<svg viewBox="0 0 21 20" fill="none" xmlns="http://www.w3.org/2000/svg">
<path d="M15.95 6.01667C15.4408 4.84667 14.5621 3.8759 13.4484 3.25311C12.3347 2.63032 11.0476 2.38986 9.78414 2.5686C8.52073 2.74733 7.35078 3.33538 6.45355 4.24265C5.55633 5.14992 4.98133 6.32635 4.81667 7.59167C4.11852 7.76171 3.49401 8.15281 3.03621 8.70667C2.57842 9.26052 2.31185 9.94749 2.27625 10.6652C2.24065 11.3828 2.43791 12.0928 2.83864 12.6893C3.23937 13.2857 3.82211 13.7367 4.5 13.975C4.58643 14.0016 4.67624 14.0157 4.76667 14.0167C4.98769 14.052 5.21369 13.9981 5.39498 13.8669C5.57626 13.7356 5.69798 13.5377 5.73334 13.3167C5.7687 13.0957 5.71482 12.8696 5.58354 12.6884C5.45227 12.5071 5.25435 12.3854 5.03334 12.35C4.7191 12.2366 4.4462 12.0313 4.25005 11.7609C4.0539 11.4904 3.94356 11.1673 3.93334 10.8333C3.93334 10.3913 4.10893 9.96739 4.42149 9.65483C4.73405 9.34227 5.15798 9.16667 5.6 9.16667C5.82102 9.16667 6.03298 9.07887 6.18926 8.92259C6.34554 8.76631 6.43334 8.55435 6.43334 8.33334C6.43547 7.34774 6.78691 6.3948 7.42523 5.64382C8.06355 4.89285 8.94741 4.39246 9.9198 4.23157C10.8922 4.07067 11.8901 4.25968 12.7363 4.76501C13.5825 5.27035 14.2222 6.05929 14.5417 6.99167C14.5893 7.13487 14.6749 7.26245 14.7894 7.36078C14.9039 7.45912 15.0429 7.52452 15.1917 7.55C15.6928 7.6407 16.1543 7.88228 16.5143 8.24241C16.8744 8.60254 17.1159 9.06404 17.2065 9.56517C17.2971 10.0663 17.2326 10.5832 17.0214 11.0466C16.8103 11.51 16.4626 11.8979 16.025 12.1583C15.8327 12.2688 15.6922 12.4512 15.6344 12.6653C15.5766 12.8794 15.6062 13.1077 15.7167 13.3C15.8272 13.4923 16.0095 13.6328 16.2236 13.6906C16.4378 13.7484 16.6661 13.7188 16.8583 13.6083C17.4902 13.2416 18.0145 12.7152 18.3787 12.0818C18.7429 11.4485 18.9342 10.7306 18.9333 10C18.9308 9.10345 18.6392 8.23162 18.1017 7.51401C17.5642 6.7964 16.8097 6.27129 15.95 6.01667ZM12.925 9.71667C12.6091 9.78538 12.2822 9.78599 11.9661 9.71846C11.65 9.65092 11.3519 9.51679 11.0917 9.325C10.949 9.22071 10.7768 9.16451 10.6 9.16451C10.4232 9.16451 10.2511 9.22071 10.1083 9.325C9.84837 9.51728 9.55027 9.6517 9.23406 9.71926C8.91785 9.78681 8.59085 9.78593 8.275 9.71667C8.15329 9.69039 8.02723 9.69171 7.90609 9.72056C7.78495 9.7494 7.67182 9.80502 7.57501 9.88334C7.47941 9.96088 7.40218 10.0586 7.34887 10.1696C7.29556 10.2805 7.26749 10.4019 7.26667 10.525V13.3333C7.26602 13.9309 7.40419 14.5205 7.67028 15.0556C7.93637 15.5906 8.3231 16.0566 8.8 16.4167L10.1083 17.375C10.2511 17.4793 10.4232 17.5355 10.6 17.5355C10.7768 17.5355 10.949 17.4793 11.0917 17.375L12.4 16.4083C12.8772 16.0504 13.2643 15.5861 13.5305 15.0523C13.7967 14.5184 13.9346 13.9299 13.9333 13.3333V10.525C13.9325 10.4019 13.9045 10.2805 13.8511 10.1696C13.7978 10.0586 13.7206 9.96088 13.625 9.88334C13.5282 9.80502 13.4151 9.7494 13.2939 9.72056C13.1728 9.69171 13.0467 9.69039 12.925 9.71667ZM12.2667 13.3333C12.2593 13.6554 12.1808 13.9719 12.0367 14.26C11.8927 14.5482 11.6866 14.8009 11.4333 15L10.6 15.6L9.76667 15C9.51341 14.8009 9.30735 14.5482 9.16327 14.26C9.0192 13.9719 8.94067 13.6554 8.93334 13.3333V11.4333C9.51618 11.4071 10.0857 11.2505 10.6 10.975C11.1143 11.2505 11.6838 11.4071 12.2667 11.4333V13.3333Z" fill="currentColor"/>
</svg>
