<svg viewBox="0 0 16 16" fill="none" xmlns="http://www.w3.org/2000/svg">
  <path fill-rule="evenodd" clip-rule="evenodd"
        d="M4.00004 2.6665C4.17685 2.6665 4.34642 2.73674 4.47145 2.86177C4.59647 2.98679 4.66671 3.15636 4.66671 3.33317V4.73384C5.2214 4.16802 5.91099 3.75271 6.67054 3.52703C7.43008 3.30134 8.23457 3.27272 9.00823 3.44384C9.78189 3.61497 10.4993 3.98021 11.0928 4.50517C11.6863 5.03013 12.1364 5.69753 12.4007 6.4445C12.4328 6.52768 12.4478 6.61643 12.445 6.70553C12.4422 6.79462 12.4215 6.88224 12.3842 6.96321C12.3469 7.04418 12.2938 7.11684 12.2279 7.17691C12.1621 7.23698 12.0848 7.28323 12.0008 7.31292C11.9167 7.34262 11.8276 7.35516 11.7386 7.3498C11.6496 7.34444 11.5626 7.32129 11.4827 7.28172C11.4029 7.24215 11.3317 7.18696 11.2736 7.11942C11.2154 7.05188 11.1713 6.97336 11.144 6.8885C10.9428 6.31971 10.591 5.81618 10.1262 5.43155C9.66131 5.04693 9.10082 4.79563 8.50442 4.70442C7.90801 4.61322 7.29803 4.68554 6.73948 4.91366C6.18093 5.14179 5.69474 5.51718 5.33271 5.99984H7.33337C7.51019 5.99984 7.67975 6.07008 7.80478 6.1951C7.9298 6.32012 8.00004 6.48969 8.00004 6.6665C8.00004 6.84331 7.9298 7.01288 7.80478 7.13791C7.67975 7.26293 7.51019 7.33317 7.33337 7.33317H4.00004C3.82323 7.33317 3.65366 7.26293 3.52864 7.13791C3.40361 7.01288 3.33337 6.84331 3.33337 6.6665V3.33317C3.33337 3.15636 3.40361 2.98679 3.52864 2.86177C3.65366 2.73674 3.82323 2.6665 4.00004 2.6665ZM4.00537 8.7045C4.08793 8.67534 4.17542 8.66273 4.26286 8.66739C4.35029 8.67204 4.43595 8.69388 4.51494 8.73164C4.59393 8.7694 4.66471 8.82236 4.72324 8.88748C4.78177 8.9526 4.82689 9.02861 4.85604 9.11117C5.05728 9.67996 5.40907 10.1835 5.87392 10.5681C6.33877 10.9527 6.89926 11.204 7.49567 11.2952C8.09207 11.3865 8.70205 11.3141 9.2606 11.086C9.81915 10.8579 10.3053 10.4825 10.6674 9.99984H8.66671C8.4899 9.99984 8.32033 9.9296 8.1953 9.80457C8.07028 9.67955 8.00004 9.50998 8.00004 9.33317C8.00004 9.15636 8.07028 8.98679 8.1953 8.86177C8.32033 8.73674 8.4899 8.6665 8.66671 8.6665H12C12.1769 8.6665 12.3464 8.73674 12.4714 8.86177C12.5965 8.98679 12.6667 9.15636 12.6667 9.33317V12.6665C12.6667 12.8433 12.5965 13.0129 12.4714 13.1379C12.3464 13.2629 12.1769 13.3332 12 13.3332C11.8232 13.3332 11.6537 13.2629 11.5286 13.1379C11.4036 13.0129 11.3334 12.8433 11.3334 12.6665V11.2658C10.7787 11.8317 10.0891 12.247 9.32955 12.4726C8.57 12.6983 7.76551 12.727 6.99185 12.5558C6.21819 12.3847 5.50082 12.0195 4.90731 11.4945C4.31381 10.9695 3.86369 10.3021 3.59937 9.55517C3.57021 9.47261 3.5576 9.38512 3.56226 9.29769C3.56691 9.21026 3.58875 9.1246 3.62651 9.04561C3.66427 8.96661 3.71723 8.89583 3.78235 8.8373C3.84747 8.77878 3.92348 8.73365 4.00604 8.7045H4.00537Z"
        fill="currentColor"/>
</svg>
