<svg viewBox="0 0 24 24" fill="none" xmlns="http://www.w3.org/2000/svg">
  <path fill-rule="evenodd" clip-rule="evenodd"
    d="M5 19C5 18.7348 5.10536 18.4804 5.29289 18.2929C5.48043 18.1054 5.73478 18 6 18H18C18.2652 18 18.5196 18.1054 18.7071 18.2929C18.8946 18.4804 19 18.7348 19 19C19 19.2652 18.8946 19.5196 18.7071 19.7071C18.5196 19.8946 18.2652 20 18 20H6C5.73478 20 5.48043 19.8946 5.29289 19.7071C5.10536 19.5196 5 19.2652 5 19ZM8.293 8.707C8.10553 8.51947 8.00021 8.26516 8.00021 8C8.00021 7.73484 8.10553 7.48053 8.293 7.293L11.293 4.293C11.4805 4.10553 11.7348 4.00021 12 4.00021C12.2652 4.00021 12.5195 4.10553 12.707 4.293L15.707 7.293C15.8892 7.4816 15.99 7.7342 15.9877 7.9964C15.9854 8.2586 15.8802 8.50941 15.6948 8.69482C15.5094 8.88023 15.2586 8.9854 14.9964 8.98767C14.7342 8.98995 14.4816 8.88916 14.293 8.707L13 7.414V15C13 15.2652 12.8946 15.5196 12.7071 15.7071C12.5196 15.8946 12.2652 16 12 16C11.7348 16 11.4804 15.8946 11.2929 15.7071C11.1054 15.5196 11 15.2652 11 15V7.414L9.707 8.707C9.51947 8.89447 9.26516 8.99979 9 8.99979C8.73484 8.99979 8.48053 8.89447 8.293 8.707Z"
    fill="currentColor" />
</svg>
